{"accessors" : [{"bufferView" : 0, "byteOffset" : 0, "componentType" : 5123, "count" : 6, "type" : "SCALAR", "max" : [3], "min" : [0]}, {"bufferView" : 1, "byteOffset" : 0, "componentType" : 5126, "count" : 4, "type" : "VEC3", "max" : [63.196327209472656, 0.07764799892902374, 63.196327209472656], "min" : [-63.196327209472656, 0.07764799892902374, -63.196327209472656]}, {"bufferView" : 1, "byteOffset" : 12, "componentType" : 5126, "count" : 4, "type" : "VEC3", "max" : [0, 1.0000044107437134, 0], "min" : [0, 1.0000044107437134, 0]}, {"bufferView" : 0, "byteOffset" : 12, "componentType" : 5123, "count" : 6, "type" : "SCALAR", "max" : [3], "min" : [0]}, {"bufferView" : 2, "byteOffset" : 0, "componentType" : 5126, "count" : 4, "type" : "VEC3", "max" : [41.00947189331055, 76.44758605957031, 161.18516540527344], "min" : [-59.332096099853516, -27.184947967529297, 116.98707580566406]}, {"bufferView" : 2, "byteOffset" : 12, "componentType" : 5126, "count" : 4, "type" : "VEC3", "max" : [0.13859832286834717, 0.30229634046554565, 0.9430885910987854], "min" : [0.13859832286834717, 0.30229634046554565, 0.9430885910987854]}, {"bufferView" : 0, "byteOffset" : 24, "componentType" : 5123, "count" : 6, "type" : "SCALAR", "max" : [3], "min" : [0]}, {"bufferView" : 3, "byteOffset" : 0, "componentType" : 5126, "count" : 4, "type" : "VEC3", "max" : [109.3549575805664, 49.960655212402344, 46.87582015991211], "min" : [69.64411163330078, -16.900415420532227, -13.559398651123047]}, {"bufferView" : 3, "byteOffset" : 12, "componentType" : 5126, "count" : 4, "type" : "VEC3", "max" : [0.8865239024162292, 0.248006671667099, 0.3906105160713196], "min" : [0.8865239024162292, 0.248006671667099, 0.3906105160713196]}, {"bufferView" : 0, "byteOffset" : 36, "componentType" : 5123, "count" : 6, "type" : "SCALAR", "max" : [3], "min" : [0]}, {"bufferView" : 4, "byteOffset" : 0, "componentType" : 5126, "count" : 4, "type" : "VEC3", "max" : [39.413719177246094, 53.766448974609375, -114.50749969482422], "min" : [-29.146217346191406, -4.503808975219727, -167.10147094726562]}, {"bufferView" : 4, "byteOffset" : 12, "componentType" : 5126, "count" : 4, "type" : "VEC3", "max" : [0.22389951348304749, 0.5443987846374512, -0.8083982467651367], "min" : [0.22389951348304749, 0.5443987846374512, -0.8083982467651367]}, {"bufferView" : 0, "byteOffset" : 48, "componentType" : 5123, "count" : 1434, "type" : "SCALAR", "max" : [704], "min" : [0]}, {"bufferView" : 5, "byteOffset" : 0, "componentType" : 5126, "count" : 705, "type" : "VEC3", "max" : [14.683440208435059, 14.737866401672363, 10.435125350952148], "min" : [-19.24734115600586, 0.06411600112915039, -10.300347328186035]}, {"bufferView" : 5, "byteOffset" : 12, "componentType" : 5126, "count" : 705, "type" : "VEC2", "max" : [0.9939420223236084, -0.004985999781638384], "min" : [0.0073020001873373985, -0.9872369766235352]}, {"bufferView" : 5, "byteOffset" : 20, "componentType" : 5126, "count" : 705, "type" : "VEC3", "max" : [1.0000044107437134, 1.0000044107437134, 1.0000044107437134], "min" : [-1.0000044107437134, -1.0000044107437134, -0.9979284405708313]}], "asset" : {"generator" : "Aspose.3D 20.12.3", "version" : "2.0"}, "buffers" : [{"uri" : "buffer.bin", "byteLength" : 49404}], "bufferViews" : [{"buffer" : 0, "byteOffset" : 0, "byteLength" : 2916, "target" : 34963}, {"buffer" : 0, "byteOffset" : 2920, "byteLength" : 144, "byteStride" : 24, "target" : 34962}, {"buffer" : 0, "byteOffset" : 3068, "byteLength" : 144, "byteStride" : 24, "target" : 34962}, {"buffer" : 0, "byteOffset" : 3216, "byteLength" : 144, "byteStride" : 24, "target" : 34962}, {"buffer" : 0, "byteOffset" : 3364, "byteLength" : 144, "byteStride" : 24, "target" : 34962}, {"buffer" : 0, "byteOffset" : 3512, "byteLength" : 45888, "byteStride" : 32, "target" : 34962}], "meshes" : [{"primitives" : [{"attributes" : {"POSITION" : 1, "NORMAL" : 2}, "indices" : 0, "mode" : 4}]}, {"primitives" : [{"attributes" : {"POSITION" : 4, "NORMAL" : 5}, "indices" : 3, "mode" : 4}]}, {"primitives" : [{"attributes" : {"POSITION" : 7, "NORMAL" : 8}, "indices" : 6, "mode" : 4}]}, {"primitives" : [{"attributes" : {"POSITION" : 10, "NORMAL" : 11}, "indices" : 9, "mode" : 4}]}, {"primitives" : [{"attributes" : {"POSITION" : 13, "TEXCOORD_0" : 14, "NORMAL" : 15}, "indices" : 12, "mode" : 4}]}], "nodes" : [{"mesh" : 0, "name" : "ground_Plane.004"}, {"mesh" : 1, "name" : "light_3_Plane.003"}, {"mesh" : 2, "name" : "light_1_Plane.002"}, {"mesh" : 3, "name" : "light_2_Plane.001"}, {"mesh" : 4, "name" : "Cube_Cube.002"}], "scene" : 0, "scenes" : [{"nodes" : [0, 1, 2, 3, 4]}]}